<svg id="Capa_1" enable-background="new 0 0 512 512" height="512" viewBox="0 0 512 512" width="512" xmlns="http://www.w3.org/2000/svg"><g><path d="m503.819 465.038c-3.019-3.001-6.603-5.216-10.549-6.545-.026-5.617-2.243-11.111-6.294-15.162l-48.64-48.64c6.983-11.13 12.381-23.229 15.956-35.909 1.105-3.917-1.176-7.989-5.094-9.094-3.917-1.104-7.988 1.177-9.094 5.094-5.716 20.275-16.644 38.897-31.602 53.854-23.433 23.433-54.589 36.339-87.729 36.339s-64.297-12.905-87.729-36.339c-48.076-46.049-47.997-129.466 0-175.46 23.433-23.433 54.589-36.339 87.729-36.339s64.297 12.905 87.729 36.339c24.106 24.105 37.305 57.537 36.214 91.724-.13 4.069 3.063 7.472 7.132 7.602 4.051.1 7.471-3.063 7.602-7.131 1.221-38.241-13.55-75.644-40.523-102.617-3.565-3.565-7.294-6.904-11.162-10.026 2.169-48.862-12.971-96.14-43.126-134.516-2.512-3.203-7.144-3.765-10.347-1.254-3.203 2.512-3.765 7.144-1.253 10.348 24.78 31.612 38.547 69.238 40.054 109.227h-10.536c-21.623-10.827-46.614-15.828-71.276-14.109-2.036-37.34-9.373-72.541-21.138-102.039 11.691-6.531 22.687-14.442 32.793-23.632 3.171 2.565 6.274 5.232 9.293 8.015 2.995 2.759 7.657 2.569 10.416-.425 2.758-2.993 2.568-7.656-.425-10.415-37.738-34.777-86.798-53.928-138.146-53.928-111.56-.174-203.919 90.895-203.9 203.901-.255 115.926 97.8 208.821 212.202 203.719 3.184 3.968 6.595 7.791 10.244 11.439 26.218 26.218 61.076 40.656 98.154 40.656 26.53 0 51.921-7.395 73.826-21.205l48.599 48.598c4.052 4.053 9.546 6.27 15.163 6.295 1.338 3.973 3.572 7.577 6.603 10.607 10.638 11.036 29.913 10.601 39.925-1.066 9.652-10.719 9.172-27.725-1.071-37.906zm-321.047-158.629c-17.867 2.159-35.248 7.06-51.528 14.429-12.36-31.381-19.378-69.349-20.144-109.566h85.604v47.278c-7.476 14.867-12.203 31.033-13.932 47.859zm-.742 14.956c.07 21.864 5.14 42.935 14.674 61.897v9.183c-22.018-2.796-45.48-27.019-59.603-58.082 14.22-6.462 29.359-10.867 44.929-12.998zm40.59-98.613c-4.004 4.004-7.73 8.214-11.175 12.602v-24.083h24.157c-4.524 3.53-8.861 7.359-12.982 11.481zm73.992-38.571c-13.137 2.293-25.782 6.455-37.621 12.35h-47.547v-94.016c22.898-.937 45.054-6.231 65.489-15.48 10.999 28 17.83 61.508 19.679 97.146zm-30.474-120.4c1.714 3.134 3.363 6.375 4.947 9.715-18.612 8.458-38.786 13.338-59.64 14.269v-72.4c20.08 3.338 39.27 20.226 54.693 48.416zm-69.434-48.426v72.409c-20.86-.931-41.039-5.813-59.654-14.276 4.342-9.148 9.155-17.498 14.411-24.905 9.783-13.79 25.211-29.936 45.243-33.228zm114.174 32.407c-8.3 7.286-17.233 13.643-26.663 19.022-1.649-3.46-3.364-6.822-5.145-10.079-8.013-14.647-17.092-26.65-26.916-35.786 20.928 5.484 40.778 14.544 58.724 26.843zm-171.441-7.707c-5.664 7.984-10.844 16.944-15.509 26.726-9.403-5.365-18.311-11.701-26.591-18.962 17.616-12.085 37.368-21.268 58.567-26.854-5.748 5.371-11.255 11.744-16.467 19.09zm-54.154 16.757c10.085 9.161 21.056 17.05 32.719 23.566-6.816 17.092-12.204 36.23-15.927 56.915-.721 4.006 1.942 7.838 5.949 8.559 4 .72 7.838-1.942 8.56-5.948 3.464-19.251 8.409-37.024 14.625-52.874 20.437 9.251 42.596 14.547 65.496 15.484v94.016h-85.605c.159-8.227.577-16.434 1.26-24.486.345-4.056-2.664-7.623-6.72-7.968-4.041-.346-7.623 2.665-7.967 6.72-.719 8.463-1.153 17.09-1.314 25.733h-81.287c2.171-56.351 29.105-106.455 70.211-139.717zm-70.211 154.46h81.285c.784 42.563 8.337 82.884 21.669 116.227-11.716 6.529-22.717 14.398-32.745 23.49-41.105-33.262-68.038-83.366-70.209-139.717zm82.271 148.715c8.248-7.214 17.173-13.551 26.621-18.925 8.36 17.859 20.107 34.934 31.925 45.771-21.191-5.586-40.936-14.766-58.546-26.846zm396.592 133.093c-4.654 5.42-13.634 5.654-18.548.506-2.003-2.003-3.255-4.546-3.623-7.358-.587-5.419-6.374-9.278-11.61-7.783-2.368.617-4.812-.039-6.532-1.76l-46.825-46.825c8.439-6.672 16.246-14.47 22.91-22.952l46.846 46.846c1.721 1.72 2.378 4.161 1.76 6.532-1.492 5.229 2.355 11.03 7.774 11.609 2.799.362 5.338 1.607 7.341 3.597 4.754 4.727 4.983 12.618.507 17.588z"/><path d="m320.773 211.578c-29.203 0-56.657 11.372-77.307 32.021-20.649 20.65-32.021 48.105-32.021 77.307-1.215 58.766 50.564 110.543 109.328 109.328 29.203 0 56.657-11.372 77.307-32.021 42.627-42.627 42.627-111.987 0-154.614-20.649-20.649-48.104-32.021-77.307-32.021zm94.562 109.328c0 52.239-42.348 94.587-94.587 94.587s-94.587-42.348-94.587-94.587 42.348-94.587 94.587-94.587 94.587 42.348 94.587 94.587z"/><path d="m321.473 252.256c-19.536-.537-36.097 15.693-35.943 35.213 0 4.071 3.299 7.37 7.37 7.37s7.37-3.3 7.37-7.37c-.092-11.352 9.503-20.788 20.905-20.475 10.677.215 19.472 8.726 20.025 19.376.296 5.684-1.694 11.08-5.6 15.194-3.909 4.118-9.183 6.385-14.851 6.385-4.071 0-7.37 3.3-7.37 7.37v29.122c0 4.071 3.299 7.37 7.37 7.37s7.37-3.3 7.37-7.37v-22.54c6.885-1.486 13.265-5.02 18.171-10.188 6.717-7.075 10.137-16.346 9.632-26.108-.952-18.331-16.084-32.979-34.449-33.349z"/><path d="m320.821 366.336c-4.379 0-7.928 3.55-7.928 7.929s3.55 7.929 7.928 7.929c4.379 0 7.929-3.55 7.929-7.929s-3.55-7.929-7.929-7.929z"/></g></svg>