<?xml version="1.0" encoding="utf-8"?>
<!-- Generator: Adobe Illustrator 16.0.3, SVG Export Plug-In . SVG Version: 6.00 Build 0)  -->
<!DOCTYPE svg PUBLIC "-//W3C//DTD SVG 1.1//EN" "http://www.w3.org/Graphics/SVG/1.1/DTD/svg11.dtd">
<svg version="1.1" id="Layer_1" xmlns="http://www.w3.org/2000/svg" xmlns:xlink="http://www.w3.org/1999/xlink" x="0px" y="0px"
	 width="484.031px" height="484.238px" viewBox="0 0 484.031 484.238" enable-background="new 0 0 484.031 484.238"
	 xml:space="preserve">
<path fill-rule="evenodd" clip-rule="evenodd" fill="none" d="M498.095,242.419c0,83.813-0.023,167.626,0.088,251.438
	c0.005,3.314-0.511,4.153-4.036,4.15c-167.96-0.115-335.918-0.118-503.877,0.012c-3.811,0.003-4.256-1.033-4.254-4.436
	C-13.894,325.792-13.893,158-13.991-9.793c-0.002-3.469,0.541-4.409,4.284-4.406c167.792,0.124,335.584,0.124,503.377,0.002
	c3.919-0.003,4.516,1.068,4.511,4.68C498.069,74.46,498.095,158.44,498.095,242.419z M1.743,261.881
	c0,45.992,0.575,91.993-0.237,137.971c-0.419,23.75,19.198,42.813,42.354,42.626c73.481-0.591,146.971-0.159,220.457-0.33
	c5.768-0.014,9.738,1.727,13.939,5.742c32.907,31.446,72.102,41.996,115.701,30.073c74.548-20.386,109.863-102.047,75.163-171.187
	c-1.853-3.69-2.733-7.32-2.728-11.441c0.077-57.989,0.126-115.979,0.013-173.967c-0.044-22.419-17.752-39.785-40.171-39.804
	c-32.66-0.029-65.322-0.108-97.981,0.078c-4.669,0.026-6.007-1.383-5.903-5.953c0.275-11.992,0.234-23.996,0.039-35.991
	c-0.328-20.167-18.172-37.992-38.321-38.086c-32.993-0.151-65.988-0.146-98.981-0.007c-21.614,0.091-39.077,17.584-39.309,39.12
	c-0.124,11.496-0.283,23.003,0.08,34.489c0.161,5.091-1.373,6.489-6.451,6.454c-31.992-0.224-63.987-0.139-95.981-0.104
	c-24.715,0.028-41.657,17.036-41.673,41.85C1.723,169.571,1.745,215.726,1.743,261.881z"/>
<path fill-rule="evenodd" clip-rule="evenodd" fill="#2A4160" stroke="#2A4160" stroke-width="3" stroke-miterlimit="10" d="
	M1.744,261.881c0-46.155-0.021-92.311,0.009-138.466c0.016-24.813,16.958-41.821,41.673-41.85
	c31.994-0.035,63.989-0.12,95.981,0.104c5.078,0.035,6.611-1.363,6.451-6.454c-0.363-11.486-0.204-22.993-0.08-34.489
	c0.232-21.536,17.695-39.029,39.309-39.12c32.993-0.14,65.988-0.145,98.981,0.007c20.149,0.094,37.993,17.919,38.321,38.086
	c0.195,11.995,0.236,23.999-0.039,35.991c-0.104,4.57,1.234,5.979,5.903,5.953c32.659-0.187,65.321-0.107,97.981-0.078
	c22.419,0.019,40.127,17.385,40.171,39.804c0.113,57.988,0.064,115.978-0.013,173.967c-0.006,4.121,0.875,7.751,2.728,11.441
	c34.7,69.14-0.615,150.801-75.163,171.187c-43.6,11.923-82.794,1.373-115.701-30.073c-4.201-4.016-8.172-5.756-13.939-5.742
	c-73.486,0.171-146.976-0.261-220.457,0.33c-23.156,0.187-42.773-18.876-42.354-42.626C2.318,353.875,1.743,307.874,1.744,261.881z
	 M234.428,98.272c-7.833,0-15.666,0-23.498,0c-55.328-0.004-110.655-0.035-165.983,0.007c-16.001,0.013-26.314,9.586-26.428,25.003
	c-0.21,28.496-0.324,56.997,0.029,85.49c0.271,21.846,13.861,37.017,35.538,40.211c9.909,1.461,19.963,0.496,29.95,0.521
	c31.997,0.081,63.994-0.031,95.99,0.118c4.25,0.02,6.07-1.049,5.784-5.588c-0.346-5.478-0.118-10.994-0.079-16.493
	c0.051-7.13,2.884-9.988,10.037-9.996c25.664-0.025,51.328-0.026,76.992,0.011c6.765,0.01,9.598,2.907,9.687,9.83
	c0.075,5.832,0.137,11.669-0.042,17.497c-0.104,3.407,1.081,4.813,4.605,4.72c6.828-0.18,13.666,0.054,20.496-0.085
	c4.465-0.091,8.99,0.717,13.383-0.845c27.221-9.678,54.482-9.781,81.744-0.202c2.919,1.026,5.85,1.255,8.854,0.99
	c22.782-2.011,38.173-18.666,38.235-41.55c0.074-27.497,0.074-54.995-0.01-82.492c-0.055-17.738-9.568-27.146-27.303-27.151
	C359.749,98.248,297.089,98.26,234.428,98.272z M18.757,250.675c-0.134,1.944-0.277,3.053-0.278,4.161
	c-0.016,48.48-0.1,96.962,0.021,145.441c0.039,15.503,10.329,25.241,26.145,25.247c69.639,0.029,139.277,0.024,208.916,0.029
	c6.122,0.001,5.947,0.083,3.201-5.261c-22.849-44.459-20.398-87.458,7.746-128.844c6.361-9.355,14.365-17.269,23.629-24.629
	c-1.219-0.299-1.671-0.508-2.123-0.508c-55.812-0.025-111.623-0.015-167.434-0.094c-3.443-0.005-4.212,1.542-4.17,4.577
	c0.118,8.662,0.107,17.326,0.035,25.989c-0.054,6.46-3.045,9.441-9.543,9.474c-12.495,0.063-24.99,0.049-37.485,0
	c-6.589-0.026-9.551-2.867-9.657-9.339c-0.109-6.662-0.011-13.327-0.036-19.991c-0.035-9.504-0.03-9.604-9.413-11.299
	C37.233,263.629,27.691,258.551,18.757,250.675z M375.131,464.406c0.71-0.116,2.677-0.461,4.649-0.761
	c41.393-6.292,77.364-41.926,83.934-83.299c1.637-10.307,3.178-10.3-8.393-10.029c-3.906,0.091-5.662-0.889-5.682-5.234
	c-0.049-11.166-0.242-11.306,10.83-11.474c3.715-0.057,4.57-1.479,4.17-4.855c-5.246-44.368-41.35-81.859-85.463-88.664
	c-8.68-1.339-8.68-1.339-8.731,7.51c-0.038,6.62-0.039,6.668-6.593,6.648c-11.463-0.034-10.156,1.176-10.023-9.618
	c0.057-4.521-1.385-5.856-5.842-5.169c-46.001,7.102-80.254,40.685-87.847,86.288c-1.297,7.789-1.297,7.789,6.565,7.808
	c7.765,0.019,7.789,0.019,7.737,7.502c-0.071,10.293,0.899,9.094-9.048,9.203c-6.09,0.066-6.533,0.69-5.619,6.668
	c3.156,20.644,11.782,38.798,25.661,54.237c15.646,17.405,35.231,28.231,58.329,32.365c9.709,1.737,9.744,1.531,9.979-8.485
	c0.023-0.998,0.065-1.997,0.136-2.993c0.094-1.328,0.774-2.276,2.135-2.313c4.467-0.12,9.45-1.594,13.222,0.688
	c2.795,1.69,0.801,6.212,1.227,9.44c0.064,0.492,0.044,0.999,0.031,1.498C370.433,463.687,371.527,464.77,375.131,464.406z
	 M233.857,33.556c0-0.008,0-0.017,0-0.024c15.164,0,30.328-0.02,45.492,0.007c8.571,0.015,11.102,2.539,11.102,10.935
	c0.002,8.998-0.066,17.997,0.012,26.995c0.1,11.296-1.599,9.862,10.124,10.151c3.851,0.095,5.329-1.024,5.235-5.081
	c-0.246-10.659-0.074-21.327-0.104-31.992c-0.047-16.249-9.913-26.23-26.172-26.266c-30.327-0.065-60.656-0.066-90.983,0.003
	c-16.227,0.038-26.027,10.001-26.104,26.339c-0.041,8.832-0.033,17.664,0.017,26.495c0.07,12.188-1.642,10.126,10.7,10.474
	c3.51,0.099,4.659-1.186,4.609-4.644c-0.155-10.662-0.056-21.329-0.038-31.993c0.016-9.139,2.307-11.388,11.619-11.395
	C204.196,33.548,219.026,33.556,233.857,33.556z M234.088,50.277c-11.662,0-23.325,0.091-34.986-0.057
	c-3.404-0.043-4.796,0.996-4.7,4.559c0.203,7.492,0.18,14.995,0.026,22.488c-0.068,3.29,1.217,4.343,4.415,4.33
	c23.49-0.093,46.982-0.118,70.472-0.01c3.674,0.017,4.514-1.574,4.451-4.836c-0.143-7.327-0.173-14.664,0.029-21.989
	c0.099-3.575-1.345-4.593-4.723-4.553C257.413,50.347,245.75,50.262,234.088,50.277z M234.074,234.26
	c-7.327,0-14.655-0.051-21.982,0.012c-10.844,0.093-9.332-1.411-9.738,9.496c-0.176,4.737,1.545,5.939,6.033,5.875
	c15.65-0.228,31.307,0.017,46.959-0.121c11.698-0.103,10.165,2.044,10.446-10.786c0.079-3.593-1.385-4.581-4.742-4.522
	C252.061,234.37,243.066,234.266,234.074,234.26z M97.737,277.771c-0.059-11.525-0.059-11.525-11.154-11.487
	c-12.075,0.041-12.075,0.041-12.112,12.011c-0.035,11.196-0.035,11.196,11.386,11.255C97.797,289.611,97.797,289.611,97.737,277.771
	z M449.595,250.458c-5.324,4.758-10.357,8.161-15.885,10.792c-1.717,0.817-2.294,1.813-0.538,3.29
	c5.382,4.524,10.728,9.093,16.423,13.931C449.595,269.215,449.595,260.475,449.595,250.458z"/>
<path fill-rule="evenodd" clip-rule="evenodd" fill="none" d="M234.428,98.266c62.661-0.006,125.321-0.019,187.981,0.002
	c17.734,0.005,27.248,9.413,27.303,27.151c0.084,27.497,0.084,54.995,0.01,82.492c-0.063,22.884-15.453,39.539-38.235,41.55
	c-3.005,0.265-5.936,0.036-8.854-0.99c-27.262-9.579-54.523-9.476-81.744,0.202c-4.393,1.562-8.918,0.754-13.383,0.845
	c-6.83,0.139-13.668-0.095-20.496,0.085c-3.524,0.094-4.71-1.313-4.605-4.72c0.179-5.828,0.117-11.665,0.042-17.497
	c-0.089-6.923-2.922-9.82-9.687-9.83c-25.664-0.037-51.328-0.036-76.992-0.011c-7.153,0.008-9.986,2.866-10.037,9.996
	c-0.039,5.499-0.267,11.016,0.079,16.493c0.287,4.539-1.533,5.607-5.784,5.588c-31.996-0.149-63.993-0.037-95.99-0.118
	c-9.987-0.025-20.041,0.939-29.95-0.521c-21.676-3.194-35.267-18.365-35.538-40.211c-0.353-28.493-0.239-56.994-0.029-85.49
	c0.114-15.417,10.427-24.99,26.428-25.003c55.328-0.042,110.655-0.011,165.983-0.007C218.763,98.272,226.596,98.272,234.428,98.266z
	 M338.446,218.007c0.025-8.419,0.025-8.419-6.756-8.451c-9.924-0.046-9.924-0.046-9.947,6.744
	c-0.033,9.956-0.033,10.031,6.245,9.955C339.19,226.119,338.36,227.604,338.446,218.007z M362.39,209.531
	c-8.663,0.005-8.709,0.005-8.66,8.583c0.055,9.59-0.518,7.985,10.065,8.146c6.663,0.102,6.75,0.015,6.653-6.561
	C370.29,208.992,371.844,209.645,362.39,209.531z M402.446,218.236c0.004-8.667,0.004-8.667-7.52-8.68
	c-9.173-0.015-9.215-0.015-9.173,7.524c0.054,9.817-0.975,9.135,8.007,9.172C402.442,226.289,402.442,226.264,402.446,218.236z"/>
<path fill-rule="evenodd" clip-rule="evenodd" fill="none" d="M18.757,250.675c8.934,7.876,18.477,12.954,29.555,14.955
	c9.383,1.694,9.378,1.795,9.413,11.299c0.024,6.664-0.074,13.329,0.036,19.991c0.106,6.472,3.068,9.313,9.657,9.339
	c12.495,0.049,24.99,0.063,37.485,0c6.499-0.032,9.49-3.014,9.543-9.474c0.072-8.663,0.083-17.327-0.035-25.989
	c-0.042-3.035,0.728-4.582,4.17-4.577c55.811,0.079,111.622,0.068,167.434,0.094c0.452,0,0.904,0.209,2.123,0.508
	c-9.264,7.36-17.268,15.273-23.629,24.629c-28.145,41.386-30.595,84.385-7.746,128.844c2.746,5.344,2.921,5.262-3.201,5.261
	c-69.639-0.005-139.277,0-208.916-0.029c-15.816-0.006-26.106-9.744-26.145-25.247c-0.121-48.479-0.038-96.961-0.021-145.441
	C18.479,253.728,18.623,252.62,18.757,250.675z"/>
<path fill-rule="evenodd" clip-rule="evenodd" fill="none" d="M375.131,464.406c-3.604,0.364-4.698-0.719-4.636-3.039
	c0.013-0.499,0.033-1.006-0.031-1.498c-0.426-3.229,1.568-7.75-1.227-9.44c-3.771-2.281-8.755-0.808-13.222-0.688
	c-1.36,0.036-2.041,0.984-2.135,2.313c-0.07,0.996-0.112,1.995-0.136,2.993c-0.234,10.017-0.27,10.223-9.979,8.485
	c-23.098-4.134-42.684-14.96-58.329-32.365c-13.879-15.439-22.505-33.594-25.661-54.237c-0.914-5.978-0.471-6.602,5.619-6.668
	c9.947-0.109,8.977,1.09,9.048-9.203c0.052-7.483,0.027-7.483-7.737-7.502c-7.862-0.019-7.862-0.019-6.565-7.808
	c7.593-45.604,41.846-79.187,87.847-86.288c4.457-0.688,5.898,0.648,5.842,5.169c-0.133,10.794-1.439,9.584,10.023,9.618
	c6.554,0.02,6.555-0.028,6.593-6.648c0.052-8.849,0.052-8.849,8.731-7.51c44.113,6.805,80.217,44.296,85.463,88.664
	c0.4,3.377-0.455,4.799-4.17,4.855c-11.072,0.168-10.879,0.308-10.83,11.474c0.02,4.346,1.775,5.325,5.682,5.234
	c11.57-0.271,10.029-0.277,8.393,10.029c-6.569,41.373-42.541,77.007-83.934,83.299C377.808,463.945,375.841,464.29,375.131,464.406
	z M370.447,324.62c0.008,0,0.016,0,0.022,0c0-8.165,0.127-16.332-0.029-24.493c-0.224-11.608,2.084-10.39-10.675-10.648
	c-4.358-0.089-6.176,1.015-6.126,5.814c0.225,21.658,0.145,43.32,0.035,64.981c-0.02,3.813,1.359,6.627,4.01,9.25
	c13.143,13.012,26.189,26.121,39.259,39.207c7.574,7.584,7.399,7.418,15.329-0.076c3.508-3.316,3.453-5.37,0.018-8.71
	c-13.021-12.658-25.727-25.642-38.647-38.403c-2.308-2.279-3.317-4.664-3.259-7.931C370.562,343.95,370.447,334.284,370.447,324.62z
	"/>
<path fill-rule="evenodd" clip-rule="evenodd" fill="none" d="M233.857,33.556c-14.831,0-29.661-0.008-44.492,0.004
	c-9.312,0.007-11.603,2.256-11.619,11.395c-0.018,10.664-0.117,21.331,0.038,31.993c0.05,3.458-1.099,4.742-4.609,4.644
	c-12.342-0.348-10.63,1.714-10.7-10.474c-0.05-8.831-0.058-17.663-0.017-26.495c0.077-16.338,9.877-26.301,26.104-26.339
	c30.327-0.069,60.656-0.068,90.983-0.003c16.259,0.035,26.125,10.017,26.172,26.266c0.03,10.665-0.142,21.333,0.104,31.992
	c0.094,4.057-1.385,5.176-5.235,5.081c-11.723-0.289-10.024,1.145-10.124-10.151c-0.078-8.998-0.01-17.997-0.012-26.995
	c0-8.396-2.53-10.92-11.102-10.935c-15.164-0.026-30.328-0.007-45.492-0.007C233.857,33.54,233.857,33.548,233.857,33.556z"/>
<path fill-rule="evenodd" clip-rule="evenodd" fill="none" d="M234.088,50.269c11.662-0.007,23.325,0.078,34.985-0.06
	c3.378-0.04,4.821,0.978,4.723,4.553c-0.202,7.325-0.172,14.662-0.029,21.989c0.063,3.262-0.777,4.853-4.451,4.836
	c-23.49-0.108-46.982-0.083-70.472,0.01c-3.198,0.013-4.483-1.04-4.415-4.33c0.154-7.493,0.177-14.996-0.026-22.488
	c-0.096-3.563,1.295-4.602,4.7-4.559C210.763,50.368,222.426,50.277,234.088,50.269z"/>
<path fill-rule="evenodd" clip-rule="evenodd" fill="none" d="M234.074,234.263c8.993,0.003,17.987,0.106,26.977-0.05
	c3.357-0.059,4.821,0.93,4.742,4.522c-0.281,12.83,1.252,10.684-10.446,10.786c-15.652,0.138-31.309-0.106-46.959,0.121
	c-4.488,0.064-6.209-1.138-6.033-5.875c0.406-10.907-1.106-9.403,9.738-9.496C219.419,234.209,226.747,234.26,234.074,234.263z"/>
<path fill-rule="evenodd" clip-rule="evenodd" fill="none" d="M97.737,277.771c0.06,11.84,0.06,11.84-11.88,11.778
	c-11.42-0.059-11.42-0.059-11.386-11.255c0.037-11.97,0.037-11.97,12.112-12.011C97.678,266.246,97.678,266.246,97.737,277.771z"/>
<path fill-rule="evenodd" clip-rule="evenodd" fill="none" d="M449.595,250.458c0,10.017,0,18.757,0,28.013
	c-5.695-4.838-11.041-9.406-16.423-13.931c-1.756-1.477-1.179-2.473,0.538-3.29C439.237,258.62,444.271,255.216,449.595,250.458z"/>
<path fill-rule="evenodd" clip-rule="evenodd" fill="#2A4160" d="M338.446,218.007c-0.086,9.597,0.744,8.111-10.458,8.248
	c-6.278,0.076-6.278,0.001-6.245-9.955c0.023-6.79,0.023-6.79,9.947-6.744C338.472,209.588,338.472,209.588,338.446,218.007z"/>
<path fill-rule="evenodd" clip-rule="evenodd" fill="#2A4160" d="M362.39,209.531c9.454,0.114,7.9-0.539,8.059,10.169
	c0.097,6.575,0.01,6.662-6.653,6.561c-10.583-0.161-10.011,1.443-10.065-8.146C353.681,209.536,353.727,209.536,362.39,209.531z"/>
<path fill-rule="evenodd" clip-rule="evenodd" fill="#2A4160" d="M402.446,218.236c-0.004,8.028-0.004,8.053-8.686,8.017
	c-8.981-0.037-7.953,0.646-8.007-9.172c-0.042-7.539,0-7.539,9.173-7.524C402.45,209.569,402.45,209.569,402.446,218.236z"/>
<path fill-rule="evenodd" clip-rule="evenodd" fill="#2A4160" d="M370.447,324.62c0,9.664,0.114,19.33-0.063,28.991
	c-0.059,3.267,0.951,5.651,3.259,7.931c12.921,12.762,25.626,25.745,38.647,38.403c3.436,3.34,3.49,5.394-0.018,8.71
	c-7.93,7.494-7.755,7.66-15.329,0.076c-13.069-13.086-26.116-26.195-39.259-39.207c-2.65-2.623-4.029-5.438-4.01-9.25
	c0.109-21.661,0.189-43.323-0.035-64.981c-0.05-4.8,1.768-5.903,6.126-5.814c12.759,0.259,10.451-0.96,10.675,10.648
	c0.156,8.161,0.029,16.328,0.029,24.493C370.463,324.62,370.455,324.62,370.447,324.62z"/>
</svg>
